<svg xmlns="http://www.w3.org/2000/svg" version="1.1" xmlns:xlink="http://www.w3.org/1999/xlink" xmlns:svgjs="http://svgjs.dev/svgjs" width="1000" height="1000" viewBox="0 0 1000 1000"><rect width="1000" height="1000" fill="#000000"></rect><g transform="matrix(0.7,0,0,0.7,149.57575757575756,282.1265587044535)"><svg viewBox="0 0 396 247" data-background-color="#000000" preserveAspectRatio="xMidYMid meet" height="623" width="1000" xmlns="http://www.w3.org/2000/svg" xmlns:xlink="http://www.w3.org/1999/xlink"><g id="tight-bounds" transform="matrix(1,0,0,1,0.2400000000000091,-0.09999999999999432)"><svg viewBox="0 0 395.52 247.2" height="247.2" width="395.52"><g><svg></svg></g><g><svg viewBox="0 0 395.52 247.2" height="247.2" width="395.52"><g transform="matrix(1,0,0,1,39.55199999999999,102.22770392933292)"><svg viewBox="0 0 316.416 42.744592141334145" height="42.744592141334145" width="316.416"><g><svg viewBox="0 0 316.416 42.744592141334145" height="42.744592141334145" width="316.416"><g><svg viewBox="0 0 316.416 42.744592141334145" height="42.744592141334145" width="316.416"><g><svg viewBox="0 0 316.416 42.744592141334145" height="42.744592141334145" width="316.416"><g id="textblocktransform"><svg viewBox="0 0 316.416 42.744592141334145" height="42.744592141334145" width="316.416" id="textblock"><g><svg viewBox="0 0 316.416 42.744592141334145" height="42.744592141334145" width="316.416"><g transform="matrix(1,0,0,1,0,0)"><svg width="316.416" viewBox="-3.05 -40.95 329.27000000000004 45.35" height="42.744592141334145" data-palette-color="#ffffff"><path d="M21.7-10.65L18.6 0 10 0 0.95-33.7 9.05-33.7 12.15-21.3Q13.15-17.3 13.8-14.08 14.45-10.85 14.6-9.6L14.6-9.6 14.8-8.4Q15.65-12.3 18.2-21.3L18.2-21.3 21.55-33.2 27.25-33.2 30.55-21.3Q31.6-17.55 32.43-14.33 33.25-11.1 33.55-9.75L33.55-9.75 33.85-8.4Q34.5-12.85 36.65-21.35L36.65-21.35 39.75-33.7 47.6-33.7 38.6 0 30 0 27.05-10.65Q26-14.5 25.33-17.15 24.65-19.8 24.5-20.55L24.5-20.55 24.4-21.3Q24.25-19.25 21.7-10.65L21.7-10.65ZM58.8-12.65L58.8 0 51.5 0 51.55-25.35 58.8-25.35 58.8-20.65Q59.5-22.85 61.12-24.18 62.75-25.5 64.9-25.5L64.9-25.5Q66.1-25.5 66.8-25.3L66.8-25.3 66.8-18.4Q65.6-18.95 64.05-18.95L64.05-18.95Q61.7-18.95 60.25-17.23 58.8-15.5 58.8-12.65L58.8-12.65ZM77.6-25.35L77.6 0 70.3 0 70.3-25.35 77.6-25.35ZM76.95-35.7Q78.2-34.45 78.2-32.7 78.2-30.95 76.95-29.7 75.7-28.45 73.95-28.45 72.2-28.45 70.95-29.7 69.7-30.95 69.7-32.7 69.7-34.45 70.95-35.7 72.2-36.95 73.95-36.95 75.7-36.95 76.95-35.7ZM101.14-7.65L101.14-7.65Q101.14-3.9 98.44-1.85 95.74 0.2 91.29 0.2L91.29 0.2Q86.69 0.2 83.59-1.35L83.59-1.35 83.59-7.85Q87.04-5.45 90.89-5.45L90.89-5.45Q93.64-5.45 93.64-7.2L93.64-7.2Q93.64-7.65 93.39-8.05 93.14-8.45 92.54-8.8 91.94-9.15 91.44-9.38 90.94-9.6 89.99-10 89.04-10.4 88.54-10.65L88.54-10.65Q83.49-13.05 83.49-17.85L83.49-17.85Q83.49-21.55 86.32-23.6 89.14-25.65 93.34-25.65L93.34-25.65Q97.24-25.65 99.84-24.6L99.84-24.6 99.84-18.35Q97.19-19.9 93.64-19.9L93.64-19.9Q92.34-19.9 91.64-19.38 90.94-18.85 90.94-18.05L90.94-18.05Q90.94-17.6 91.19-17.2 91.44-16.8 92.02-16.45 92.59-16.1 93.12-15.83 93.64-15.55 94.57-15.15 95.49-14.75 96.04-14.45L96.04-14.45Q98.34-13.25 99.74-11.68 101.14-10.1 101.14-7.65ZM120.44-6.6L120.44-0.55Q118.59 0.25 115.44 0.25L115.44 0.25Q106.79 0.25 106.79-8.4L106.79-8.4 106.79-20 103.14-20 103.14-25.35 106.79-25.35 106.79-31.35 114.09-31.35 114.09-25.35 119.99-25.35 119.99-20 114.09-20 114.09-8.35Q114.09-7 114.87-6.3 115.64-5.6 116.89-5.6L116.89-5.6Q118.89-5.6 120.44-6.6L120.44-6.6ZM160.13-33.7L160.13-27.5 151.94-27.5 151.94 0 144.19 0 144.19-27.5 135.94-27.5 135.94-33.7 160.13-33.7ZM171.88-12.65L171.88 0 164.58 0 164.63-25.35 171.88-25.35 171.88-20.65Q172.58-22.85 174.21-24.18 175.83-25.5 177.98-25.5L177.98-25.5Q179.18-25.5 179.88-25.3L179.88-25.3 179.88-18.4Q178.68-18.95 177.13-18.95L177.13-18.95Q174.78-18.95 173.33-17.23 171.88-15.5 171.88-12.65L171.88-12.65ZM192.43-5L192.43-5Q193.98-5 194.83-5.95 195.68-6.9 195.68-8.55L195.68-8.55 195.68-10.4 193.33-10.4Q191.48-10.4 190.48-9.6 189.48-8.8 189.48-7.55L189.48-7.55Q189.48-5 192.43-5ZM196.03 0L196.03-3.1Q194.43 0.15 189.73 0.15L189.73 0.15Q186.03 0.15 183.95-1.95 181.88-4.05 181.88-7.2L181.88-7.2Q181.88-10.85 184.56-12.88 187.23-14.9 192.48-14.9L192.48-14.9 195.68-14.9 195.68-16.65Q195.68-19.85 191.43-19.85L191.43-19.85Q187.33-19.85 183.83-17.55L183.83-17.55 183.83-24.1Q186.83-25.8 192.48-25.8L192.48-25.8Q197.88-25.8 200.53-23.48 203.18-21.15 203.18-16.25L203.18-16.25 203.18 0 196.03 0ZM227.88-7.3L227.88-1.2Q224.93 0.4 220.78 0.4L220.78 0.4Q215.08 0.4 211.38-3.23 207.68-6.85 207.68-12.6L207.68-12.6Q207.78-18.3 211.38-22.03 214.98-25.75 221.23-25.75L221.23-25.75Q225.08-25.75 227.88-24.3L227.88-24.3 227.88-18.05Q225.23-19.7 221.98-19.7L221.98-19.7Q218.93-19.7 217.03-17.88 215.13-16.05 215.08-12.6L215.08-12.6Q215.28-9.25 217.08-7.4 218.88-5.55 221.83-5.55L221.83-5.55Q224.98-5.55 227.88-7.3L227.88-7.3ZM239.68-12.45L239.68 0 232.38 0 232.38-34.5 239.68-34.5 239.68-14 247.68-25.35 256.07-25.35 247.28-13.2 256.23 0 247.78 0 239.68-12.45ZM279.67-7.55L279.67-1.45Q277.07 0.25 271.72 0.25L271.72 0.25Q265.47 0.25 262-3.38 258.52-7 258.52-12.7L258.52-12.7Q258.52-18.75 261.9-22.18 265.27-25.6 270.22-25.6L270.22-25.6Q275.32-25.6 278.27-22.63 281.22-19.65 281.22-13.75L281.22-13.75Q281.22-12.6 280.82-9.8L280.82-9.8 265.92-9.8Q266.67-7.7 268.52-6.55 270.37-5.4 272.97-5.4L272.97-5.4Q276.82-5.4 279.67-7.55L279.67-7.55ZM270.52-20.05L270.52-20.05Q268.77-20.05 267.42-18.78 266.07-17.5 265.62-15L265.62-15 274.42-15 274.42-15.6Q274.07-20.05 270.52-20.05ZM293.67-12.65L293.67 0 286.37 0 286.42-25.35 293.67-25.35 293.67-20.65Q294.37-22.85 295.99-24.18 297.62-25.5 299.77-25.5L299.77-25.5Q300.97-25.5 301.67-25.3L301.67-25.3 301.67-18.4Q300.47-18.95 298.92-18.95L298.92-18.95Q296.57-18.95 295.12-17.23 293.67-15.5 293.67-12.65L293.67-12.65ZM322.22-7.65L322.22-7.65Q322.22-3.9 319.52-1.85 316.82 0.2 312.37 0.2L312.37 0.2Q307.77 0.2 304.67-1.35L304.67-1.35 304.67-7.85Q308.12-5.45 311.97-5.45L311.97-5.45Q314.72-5.45 314.72-7.2L314.72-7.2Q314.72-7.65 314.47-8.05 314.22-8.45 313.62-8.8 313.02-9.15 312.52-9.38 312.02-9.6 311.07-10 310.12-10.4 309.62-10.65L309.62-10.65Q304.57-13.05 304.57-17.85L304.57-17.85Q304.57-21.55 307.39-23.6 310.22-25.65 314.42-25.65L314.42-25.65Q318.32-25.65 320.92-24.6L320.92-24.6 320.92-18.35Q318.27-19.9 314.72-19.9L314.72-19.9Q313.42-19.9 312.72-19.38 312.02-18.85 312.02-18.05L312.02-18.05Q312.02-17.6 312.27-17.2 312.52-16.8 313.09-16.45 313.67-16.1 314.19-15.83 314.72-15.55 315.64-15.15 316.57-14.75 317.12-14.45L317.12-14.45Q319.42-13.25 320.82-11.68 322.22-10.1 322.22-7.65Z" opacity="1" transform="matrix(1,0,0,1,0,0)" fill="#ffffff" class="undefined-text-0" data-fill-palette-color="primary" id="text-0"></path></svg></g></svg></g></svg></g></svg></g></svg></g></svg></g></svg></g><g mask="url(&quot;#7cbcaa2e-3170-4bcf-8db6-8035d3f9089c&quot;)"><g transform="matrix(1.8863238880952289, 0, 0, 1.8863238880952289, 75.14894694370346, 1)"><svg xmlns="http://www.w3.org/2000/svg" xmlns:xlink="http://www.w3.org/1999/xlink" version="1.1" x="0" y="0" viewBox="4.999999997368221e-8 0.005859400000000015 130.00000034999997 129.98828120000002" style="enable-background:new 0 0 130 130;" xml:space="preserve" width="130.00000034999997" height="129.98828120000002" class="icon-none" data-fill-palette-color="accent" id="none"><g fill="#ffffff" data-fill-palette-color="accent"><path class="" d="M88.768 41.227c-13.105-13.105-34.431-13.105-47.537 0-13.106 13.105-13.105 34.431 0.001 47.536 6.338 6.339 14.779 9.83 23.768 9.83s17.429-3.491 23.768-9.83 9.83-14.779 9.83-23.769C98.598 56.007 95.106 47.565 88.768 41.227zM87.354 87.349c-5.961 5.961-13.9 9.244-22.354 9.244s-16.393-3.283-22.354-9.244-9.244-13.9-9.244-22.355 3.283-16.393 9.244-22.353 13.9-9.244 22.354-9.245 16.393 3.283 22.354 9.245 9.244 13.9 9.244 22.354S93.314 81.388 87.354 87.349z" fill="#ffffff" data-fill-palette-color="accent"></path><path class="" d="M46.748 45.329c-0.391-0.391-1.023-0.391-1.414 0s-0.391 1.023 0 1.414l3.263 3.263c0.195 0.195 0.451 0.293 0.707 0.293s0.512-0.098 0.707-0.293c0.391-0.391 0.391-1.023 0-1.414L46.748 45.329z" fill="#ffffff" data-fill-palette-color="accent"></path><path class="" d="M81.402 79.982c-0.391-0.391-1.023-0.391-1.414 0s-0.391 1.023 0 1.414l3.263 3.264c0.195 0.195 0.451 0.293 0.707 0.293s0.512-0.098 0.708-0.293c0.391-0.391 0.391-1.023 0-1.414L81.402 79.982z" fill="#ffffff" data-fill-palette-color="accent"></path><path class="" d="M65 43.798c0.552 0 1-0.447 1-1v-4.615c0-0.553-0.448-1-1-1s-1 0.447-1 1v4.615C64 43.351 64.447 43.798 65 43.798z" fill="#ffffff" data-fill-palette-color="accent"></path><path class="" d="M65 86.191c-0.552 0-1 0.447-1 1v4.615c0 0.553 0.448 1 1 1s1-0.447 1-1v-4.615C66 86.639 65.552 86.191 65 86.191z" fill="#ffffff" data-fill-palette-color="accent"></path><path class="" d="M83.251 45.329l-3.263 3.263c-0.391 0.391-0.391 1.023 0 1.414 0.195 0.195 0.451 0.293 0.707 0.293s0.512-0.098 0.707-0.293l3.264-3.263c0.391-0.391 0.391-1.023 0-1.414S83.642 44.938 83.251 45.329z" fill="#ffffff" data-fill-palette-color="accent"></path><path class="" d="M48.597 79.982l-3.263 3.264c-0.391 0.391-0.391 1.023 0 1.414 0.195 0.195 0.451 0.293 0.707 0.293s0.512-0.098 0.707-0.293l3.263-3.264c0.391-0.391 0.391-1.023 0-1.414S48.988 79.592 48.597 79.982z" fill="#ffffff" data-fill-palette-color="accent"></path><path class="" d="M91.812 63.994h-4.616c-0.552 0-1 0.447-1 1s0.448 1 1 1h4.616c0.552 0 1-0.447 1-1S92.364 63.994 91.812 63.994z" fill="#ffffff" data-fill-palette-color="accent"></path><path class="" d="M42.803 63.994h-4.615c-0.552 0-1 0.447-1 1s0.448 1 1 1h4.615c0.552 0 1-0.447 1-1S43.355 63.994 42.803 63.994z" fill="#ffffff" data-fill-palette-color="accent"></path><path class="" d="M55.008 53.589c-0.391-0.391-1.023-0.391-1.414 0s-0.391 1.023 0 1.414l10.425 10.425v7.468c0 0.553 0.448 1 1 1s1-0.447 1-1v-7.882c0-0.266-0.105-0.52-0.293-0.707L55.008 53.589z" fill="#ffffff" data-fill-palette-color="accent"></path><path class="" d="M109.276 92.349l2.634-2.634c0.188-0.188 0.293-0.441 0.293-0.707s-0.105-0.52-0.293-0.707l-7.441-7.441c2-4.978 3.055-10.339 3.054-15.865 0-9.967-3.407-19.408-9.666-26.998l2.634-2.635 2.307 2.308c0.446 0.445 1.039 0.691 1.669 0.691s1.223-0.246 1.669-0.691l3.94-3.941c0.446-0.445 0.691-1.037 0.692-1.668 0-0.63-0.245-1.223-0.691-1.669L99.608 19.924c-0.919-0.919-2.417-0.919-3.337 0l-3.941 3.94c-0.919 0.92-0.919 2.417 0 3.337h0l2.308 2.308-2.638 2.637c-12.207-10.048-28.745-12.251-42.851-6.606l-7.456-7.456c-0.391-0.391-1.023-0.391-1.414 0l-2.634 2.634L17.215 0.287c-0.375-0.375-1.039-0.375-1.414 0L0.293 15.796c-0.391 0.391-0.391 1.023 0 1.414l20.43 20.43-2.633 2.633c-0.391 0.391-0.391 1.023 0 1.415l7.455 7.455c-6.133 15.327-3.007 33.528 9.386 45.92 8.29 8.29 19.18 12.435 30.069 12.435 5.389 0 10.777-1.019 15.851-3.049l7.456 7.455c0.195 0.195 0.451 0.293 0.707 0.293s0.512-0.098 0.707-0.293l2.633-2.633 20.43 20.43c0.195 0.195 0.451 0.293 0.707 0.293s0.512-0.098 0.707-0.293l15.509-15.508c0.188-0.188 0.293-0.441 0.293-0.707s-0.105-0.52-0.293-0.707L109.276 92.349zM93.745 25.787c-0.14-0.141-0.14-0.368-0.001-0.509l3.941-3.94c0.141-0.141 0.369-0.141 0.509 0l10.468 10.468c0.092 0.092 0.105 0.199 0.106 0.255s-0.014 0.162-0.105 0.253l-3.942 3.942c-0.183 0.184-0.325 0.184-0.508 0L93.745 25.787zM96.052 30.923l3.025 3.025-2.531 2.531c-0.478-0.528-0.971-1.046-1.478-1.553-0.506-0.506-1.023-0.996-1.548-1.472L96.052 30.923zM2.414 16.503L16.508 2.408l19.723 19.724L22.137 36.226 2.414 16.503zM20.211 40.98l20.775-20.775 6.184 6.184c-4.435 2.043-8.59 4.887-12.239 8.537-3.649 3.649-6.493 7.803-8.537 12.238L20.211 40.98zM36.345 93.649c-7.654-7.654-11.869-17.83-11.869-28.654 0-5.47 1.08-10.772 3.132-15.669 0.016-0.032 0.031-0.063 0.042-0.097 2.008-4.757 4.934-9.129 8.695-12.889 15.802-15.801 41.511-15.8 57.309 0 7.654 7.654 11.869 17.83 11.869 28.655 0 5.469-1.08 10.771-3.131 15.668-0.016 0.032-0.031 0.063-0.043 0.096-2.008 4.757-4.934 9.129-8.695 12.89C77.854 109.449 52.146 109.45 36.345 93.649zM89.014 109.783l-6.184-6.183c4.435-2.042 8.589-4.887 12.238-8.537 3.602-3.602 6.471-7.739 8.549-12.227l6.172 6.172L89.014 109.783zM113.491 127.58l-19.723-19.723 14.094-14.094 19.724 19.723L113.491 127.58z" fill="#ffffff" data-fill-palette-color="accent"></path></g></svg></g></g><mask id="7cbcaa2e-3170-4bcf-8db6-8035d3f9089c"><rect width="640" height="400" fill="white"></rect><g transform="matrix(1,0,0,1,39.55199999999999,102.22770392933292)"><svg viewBox="0 0 316.416 42.744592141334145" height="42.744592141334145" width="316.416"><g><svg viewBox="0 0 316.416 42.744592141334145" height="42.744592141334145" width="316.416"><g><svg viewBox="0 0 316.416 42.744592141334145" height="42.744592141334145" width="316.416"><g><svg viewBox="0 0 316.416 42.744592141334145" height="42.744592141334145" width="316.416"><g id="SvgjsG1045"><svg viewBox="0 0 316.416 42.744592141334145" height="42.744592141334145" width="316.416" id="SvgjsSvg1044"><g><svg viewBox="0 0 316.416 42.744592141334145" height="42.744592141334145" width="316.416"><g transform="matrix(1,0,0,1,0,0)"><svg width="316.416" viewBox="-3.05 -40.95 329.27000000000004 45.35" height="42.744592141334145" data-palette-color="#ffffff"><path d="M21.7-10.65L18.6 0 10 0 0.95-33.7 9.05-33.7 12.15-21.3Q13.15-17.3 13.8-14.08 14.45-10.85 14.6-9.6L14.6-9.6 14.8-8.4Q15.65-12.3 18.2-21.3L18.2-21.3 21.55-33.2 27.25-33.2 30.55-21.3Q31.6-17.55 32.43-14.33 33.25-11.1 33.55-9.75L33.55-9.75 33.85-8.4Q34.5-12.85 36.65-21.35L36.65-21.35 39.75-33.7 47.6-33.7 38.6 0 30 0 27.05-10.65Q26-14.5 25.33-17.15 24.65-19.8 24.5-20.55L24.5-20.55 24.4-21.3Q24.25-19.25 21.7-10.65L21.7-10.65ZM58.8-12.65L58.8 0 51.5 0 51.55-25.35 58.8-25.35 58.8-20.65Q59.5-22.85 61.12-24.18 62.75-25.5 64.9-25.5L64.9-25.5Q66.1-25.5 66.8-25.3L66.8-25.3 66.8-18.4Q65.6-18.95 64.05-18.95L64.05-18.95Q61.7-18.95 60.25-17.23 58.8-15.5 58.8-12.65L58.8-12.65ZM77.6-25.35L77.6 0 70.3 0 70.3-25.35 77.6-25.35ZM76.95-35.7Q78.2-34.45 78.2-32.7 78.2-30.95 76.95-29.7 75.7-28.45 73.95-28.45 72.2-28.45 70.95-29.7 69.7-30.95 69.7-32.7 69.7-34.45 70.95-35.7 72.2-36.95 73.95-36.95 75.7-36.95 76.95-35.7ZM101.14-7.65L101.14-7.65Q101.14-3.9 98.44-1.85 95.74 0.2 91.29 0.2L91.29 0.2Q86.69 0.2 83.59-1.35L83.59-1.35 83.59-7.85Q87.04-5.45 90.89-5.45L90.89-5.45Q93.64-5.45 93.64-7.2L93.64-7.2Q93.64-7.65 93.39-8.05 93.14-8.45 92.54-8.8 91.94-9.15 91.44-9.38 90.94-9.6 89.99-10 89.04-10.4 88.54-10.65L88.54-10.65Q83.49-13.05 83.49-17.85L83.49-17.85Q83.49-21.55 86.32-23.6 89.14-25.65 93.34-25.65L93.34-25.65Q97.24-25.65 99.84-24.6L99.84-24.6 99.84-18.35Q97.19-19.9 93.64-19.9L93.64-19.9Q92.34-19.9 91.64-19.38 90.94-18.85 90.94-18.05L90.94-18.05Q90.94-17.6 91.19-17.2 91.44-16.8 92.02-16.45 92.59-16.1 93.12-15.83 93.64-15.55 94.57-15.15 95.49-14.75 96.04-14.45L96.04-14.45Q98.34-13.25 99.74-11.68 101.14-10.1 101.14-7.65ZM120.44-6.6L120.44-0.55Q118.59 0.25 115.44 0.25L115.44 0.25Q106.79 0.25 106.79-8.4L106.79-8.4 106.79-20 103.14-20 103.14-25.35 106.79-25.35 106.79-31.35 114.09-31.35 114.09-25.35 119.99-25.35 119.99-20 114.09-20 114.09-8.35Q114.09-7 114.87-6.3 115.64-5.6 116.89-5.6L116.89-5.6Q118.89-5.6 120.44-6.6L120.44-6.6ZM160.13-33.7L160.13-27.5 151.94-27.5 151.94 0 144.19 0 144.19-27.5 135.94-27.5 135.94-33.7 160.13-33.7ZM171.88-12.65L171.88 0 164.58 0 164.63-25.35 171.88-25.35 171.88-20.65Q172.58-22.85 174.21-24.18 175.83-25.5 177.98-25.5L177.98-25.5Q179.18-25.5 179.88-25.3L179.88-25.3 179.88-18.4Q178.68-18.95 177.13-18.95L177.13-18.95Q174.78-18.95 173.33-17.23 171.88-15.5 171.88-12.65L171.88-12.65ZM192.43-5L192.43-5Q193.98-5 194.83-5.95 195.68-6.9 195.68-8.55L195.68-8.55 195.68-10.4 193.33-10.4Q191.48-10.4 190.48-9.6 189.48-8.8 189.48-7.55L189.48-7.55Q189.48-5 192.43-5ZM196.03 0L196.03-3.1Q194.43 0.15 189.73 0.15L189.73 0.15Q186.03 0.15 183.95-1.95 181.88-4.05 181.88-7.2L181.88-7.2Q181.88-10.85 184.56-12.88 187.23-14.9 192.48-14.9L192.48-14.9 195.68-14.9 195.68-16.65Q195.68-19.85 191.43-19.85L191.43-19.85Q187.33-19.85 183.83-17.55L183.83-17.55 183.83-24.1Q186.83-25.8 192.48-25.8L192.48-25.8Q197.88-25.8 200.53-23.48 203.18-21.15 203.18-16.25L203.18-16.25 203.18 0 196.03 0ZM227.88-7.3L227.88-1.2Q224.93 0.4 220.78 0.4L220.78 0.4Q215.08 0.4 211.38-3.23 207.68-6.85 207.68-12.6L207.68-12.6Q207.78-18.3 211.38-22.03 214.98-25.75 221.23-25.75L221.23-25.75Q225.08-25.75 227.88-24.3L227.88-24.3 227.88-18.05Q225.23-19.7 221.98-19.7L221.98-19.7Q218.93-19.7 217.03-17.88 215.13-16.05 215.08-12.6L215.08-12.6Q215.28-9.25 217.08-7.4 218.88-5.55 221.83-5.55L221.83-5.55Q224.98-5.55 227.88-7.3L227.88-7.3ZM239.68-12.45L239.68 0 232.38 0 232.38-34.5 239.68-34.5 239.68-14 247.68-25.35 256.07-25.35 247.28-13.2 256.23 0 247.78 0 239.68-12.45ZM279.67-7.55L279.67-1.45Q277.07 0.25 271.72 0.25L271.72 0.25Q265.47 0.25 262-3.38 258.52-7 258.52-12.7L258.52-12.7Q258.52-18.75 261.9-22.18 265.27-25.6 270.22-25.6L270.22-25.6Q275.32-25.6 278.27-22.63 281.22-19.65 281.22-13.75L281.22-13.75Q281.22-12.6 280.82-9.8L280.82-9.8 265.92-9.8Q266.67-7.7 268.52-6.55 270.37-5.4 272.97-5.4L272.97-5.4Q276.82-5.4 279.67-7.55L279.67-7.55ZM270.52-20.05L270.52-20.05Q268.77-20.05 267.42-18.78 266.07-17.5 265.62-15L265.62-15 274.42-15 274.42-15.6Q274.07-20.05 270.52-20.05ZM293.67-12.65L293.67 0 286.37 0 286.42-25.35 293.67-25.35 293.67-20.65Q294.37-22.85 295.99-24.18 297.62-25.5 299.77-25.5L299.77-25.5Q300.97-25.5 301.67-25.3L301.67-25.3 301.67-18.4Q300.47-18.95 298.92-18.95L298.92-18.95Q296.57-18.95 295.12-17.23 293.67-15.5 293.67-12.65L293.67-12.65ZM322.22-7.65L322.22-7.65Q322.22-3.9 319.52-1.85 316.82 0.2 312.37 0.2L312.37 0.2Q307.77 0.2 304.67-1.35L304.67-1.35 304.67-7.85Q308.12-5.45 311.97-5.45L311.97-5.45Q314.72-5.45 314.72-7.2L314.72-7.2Q314.72-7.65 314.47-8.05 314.22-8.45 313.62-8.8 313.02-9.15 312.52-9.38 312.02-9.6 311.07-10 310.12-10.4 309.62-10.65L309.62-10.65Q304.57-13.05 304.57-17.85L304.57-17.85Q304.57-21.55 307.39-23.6 310.22-25.65 314.42-25.65L314.42-25.65Q318.32-25.65 320.92-24.6L320.92-24.6 320.92-18.35Q318.27-19.9 314.72-19.9L314.72-19.9Q313.42-19.9 312.72-19.38 312.02-18.85 312.02-18.05L312.02-18.05Q312.02-17.6 312.27-17.2 312.52-16.8 313.09-16.45 313.67-16.1 314.19-15.83 314.72-15.55 315.64-15.15 316.57-14.75 317.12-14.45L317.12-14.45Q319.42-13.25 320.82-11.68 322.22-10.1 322.22-7.65Z" opacity="1" transform="matrix(1,0,0,1,0,0)" fill="#ffffff" class="undefined-text-0" data-fill-palette-color="primary" id="SvgjsPath1043" stroke-width="7" stroke="black" stroke-linejoin="round"></path></svg></g></svg></g></svg></g></svg></g></svg></g></svg></g></svg></g></mask></svg></g><defs></defs></svg><rect width="395.52" height="247.2" fill="none" stroke="none" visibility="hidden"></rect></g></svg></g></svg>